<?xml version="1.0" encoding="utf-8"?>
<!-- Generator: Adobe Illustrator 16.0.0, SVG Export Plug-In . SVG Version: 6.00 Build 0)  -->
<!DOCTYPE svg PUBLIC "-//W3C//DTD SVG 1.1//EN" "http://www.w3.org/Graphics/SVG/1.1/DTD/svg11.dtd">
<svg version="1.1" id="Layer" xmlns="http://www.w3.org/2000/svg" xmlns:xlink="http://www.w3.org/1999/xlink" x="0px" y="0px"
	 width="18.5px" height="15.167px" viewBox="7.333 8 18.5 15.167" enable-background="new 7.333 8 18.5 15.167"
	 xml:space="preserve">
<path fill="#FFFFFF" d="M18.699,9.976c-0.237-0.226-0.612-0.217-0.837,0.02c-0.225,0.237-0.216,0.612,0.021,0.837l4.543,4.309
	H10.592c-0.327,0-0.592,0.265-0.592,0.592s0.266,0.592,0.592,0.592h11.814l-4.524,4.309c-0.237,0.225-0.246,0.601-0.021,0.837
	c0.117,0.122,0.272,0.184,0.429,0.184c0.146,0,0.293-0.054,0.408-0.164l5.167-4.921c0.224-0.223,0.347-0.521,0.347-0.837
	s-0.124-0.614-0.358-0.847L18.699,9.976z"/>
</svg>
