<?xml version="1.0" encoding="utf-8"?>
<!-- Generator: Adobe Illustrator 16.0.0, SVG Export Plug-In . SVG Version: 6.00 Build 0)  -->
<!DOCTYPE svg PUBLIC "-//W3C//DTD SVG 1.1//EN" "http://www.w3.org/Graphics/SVG/1.1/DTD/svg11.dtd">
<svg version="1.1" id="Calque_1" xmlns="http://www.w3.org/2000/svg" xmlns:xlink="http://www.w3.org/1999/xlink" x="0px" y="0px"
	 width="432.68px" height="431.372px" viewBox="0 0 432.68 431.372" enable-background="new 0 0 432.68 431.372"
	 xml:space="preserve">
<g>
	<path fill="#FFFFFF" d="M218.373,9.34h-1v12.055c0.334,0,0.666,0.01,1,0.013V9.34z"/>
	<path fill="#FFFFFF" d="M217.373,425.34h1v-12.713c-0.334,0.002-0.666,0.012-1,0.013V425.34z"/>
	<path fill="#FFFFFF" d="M235.164,424.593l0.996-0.088l-1.11-12.695c-0.332,0.03-0.664,0.061-0.996,0.089L235.164,424.593z"/>
	<path fill="#FFFFFF" d="M199.903,10.088l-0.996,0.087l1.047,11.966c0.332-0.029,0.663-0.062,0.996-0.088L199.903,10.088z"/>
	<path fill="#FFFFFF" d="M181.906,12.413l-0.984,0.174l2.074,11.761c0.328-0.058,0.658-0.107,0.986-0.164L181.906,12.413z"/>
	<path fill="#FFFFFF" d="M253.16,422.267l0.984-0.174l-2.214-12.556c-0.327,0.059-0.657,0.112-0.985,0.17L253.16,422.267z"/>
	<path fill="#FFFFFF" d="M164.182,16.297l-0.966,0.259l3.08,11.493c0.322-0.086,0.643-0.177,0.965-0.261L164.182,16.297z"/>
	<path fill="#FFFFFF" d="M270.884,418.381l0.967-0.259l-3.309-12.346c-0.321,0.087-0.643,0.175-0.966,0.261L270.884,418.381z"/>
	<path fill="#FFFFFF" d="M288.204,412.966l0.939-0.342l-4.378-12.029c-0.313,0.115-0.626,0.23-0.939,0.344L288.204,412.966z"/>
	<path fill="#FFFFFF" d="M146.862,21.712l-0.939,0.342l4.053,11.135c0.313-0.114,0.629-0.22,0.943-0.332L146.862,21.712z"/>
	<path fill="#FFFFFF" d="M130.082,28.615l-0.906,0.423l5.003,10.729c0.302-0.142,0.604-0.283,0.906-0.423L130.082,28.615z"/>
	<path fill="#FFFFFF" d="M304.985,406.063l0.906-0.422l-5.429-11.642c-0.301,0.142-0.604,0.282-0.906,0.423L304.985,406.063z"/>
	<path fill="#FFFFFF" d="M113.966,36.955l-0.866,0.5l5.91,10.237c0.289-0.167,0.575-0.338,0.864-0.504L113.966,36.955z"/>
	<path fill="#FFFFFF" d="M321.1,397.723l0.865-0.5l-6.441-11.157c-0.288,0.168-0.571,0.342-0.86,0.509L321.1,397.723z"/>
	<path fill="#FFFFFF" d="M336.428,388.01l0.818-0.574l-7.407-10.579c-0.272,0.192-0.549,0.379-0.822,0.569L336.428,388.01z"/>
	<path fill="#FFFFFF" d="M98.639,46.667l-0.819,0.573l6.778,9.68c0.272-0.192,0.548-0.379,0.822-0.57L98.639,46.667z"/>
	<path fill="#FFFFFF" d="M84.217,57.682l-0.766,0.643l7.594,9.05c0.255-0.215,0.507-0.432,0.763-0.646L84.217,57.682z"/>
	<path fill="#FFFFFF" d="M350.851,376.999l0.766-0.643l-8.326-9.923c-0.255,0.215-0.508,0.431-0.764,0.645L350.851,376.999z"/>
	<path fill="#FFFFFF" d="M79.152,78.251l-8.343-8.343l-0.707,0.707l8.341,8.341C78.678,78.72,78.916,78.486,79.152,78.251z"/>
	<path fill="#FFFFFF" d="M355.094,355.608l9.163,9.163l0.707-0.707l-9.165-9.165C355.564,355.136,355.33,355.373,355.094,355.608z"
		/>
	<path fill="#FFFFFF" d="M376.549,351.422l0.643-0.766l-9.936-8.337c-0.214,0.256-0.431,0.509-0.646,0.764L376.549,351.422z"/>
	<path fill="#FFFFFF" d="M58.518,83.257l-0.643,0.766l9.032,7.578c0.214-0.255,0.43-0.509,0.645-0.763L58.518,83.257z"/>
	<path fill="#FFFFFF" d="M387.63,337.052l0.574-0.818l-10.62-7.437c-0.191,0.273-0.378,0.55-0.57,0.821L387.63,337.052z"/>
	<path fill="#FFFFFF" d="M47.436,97.625l-0.573,0.819l9.646,6.754c0.191-0.273,0.378-0.55,0.57-0.822L47.436,97.625z"/>
	<path fill="#FFFFFF" d="M37.649,112.906l-0.5,0.866l10.173,5.874c0.167-0.289,0.341-0.573,0.509-0.861L37.649,112.906z"/>
	<path fill="#FFFFFF" d="M397.416,321.771l0.5-0.865l-11.202-6.468c-0.166,0.289-0.341,0.573-0.508,0.86L397.416,321.771z"/>
	<path fill="#FFFFFF" d="M405.835,305.697l0.422-0.906l-11.72-5.465c-0.141,0.303-0.281,0.604-0.423,0.905L405.835,305.697z"/>
	<path fill="#FFFFFF" d="M29.232,128.981l-0.423,0.906l10.651,4.967c0.14-0.302,0.281-0.604,0.423-0.906L29.232,128.981z"/>
	<path fill="#FFFFFF" d="M412.817,288.95l0.342-0.939l-12.129-4.414c-0.113,0.313-0.224,0.628-0.338,0.94L412.817,288.95z"/>
	<path fill="#FFFFFF" d="M22.247,145.729l-0.342,0.939l11.043,4.02c0.113-0.313,0.218-0.63,0.333-0.943L22.247,145.729z"/>
	<path fill="#FFFFFF" d="M418.316,271.656l0.259-0.967l-12.464-3.34c-0.086,0.322-0.175,0.645-0.262,0.966L418.316,271.656z"/>
	<path fill="#FFFFFF" d="M16.749,163.021l-0.259,0.966l11.371,3.047c0.085-0.323,0.175-0.643,0.261-0.965L16.749,163.021z"/>
	<path fill="#FFFFFF" d="M12.781,180.728l-0.174,0.984l11.627,2.05c0.057-0.328,0.106-0.659,0.164-0.986L12.781,180.728z"/>
	<path fill="#FFFFFF" d="M422.288,253.949l0.174-0.984l-12.704-2.24c-0.058,0.328-0.106,0.658-0.165,0.986L422.288,253.949z"/>
	<path fill="#FFFFFF" d="M424.698,235.965l0.088-0.996l-12.854-1.125c-0.028,0.333-0.058,0.665-0.088,0.996L424.698,235.965z"/>
	<path fill="#FFFFFF" d="M10.368,198.712l-0.087,0.996l11.804,1.033c0.027-0.333,0.06-0.664,0.088-0.996L10.368,198.712z"/>
	<path fill="#FFFFFF" d="M21.415,216.34H9.373v1H21.41c0-0.107-0.004-0.215-0.004-0.322
		C21.406,216.791,21.414,216.566,21.415,216.34z"/>
	<path fill="#FFFFFF" d="M412.656,217.34h12.717v-1h-12.722c0.001,0.227,0.009,0.451,0.009,0.678
		C412.66,217.125,412.656,217.232,412.656,217.34z"/>
	<path fill="#FFFFFF" d="M424.786,199.707l-0.088-0.996l-12.798,1.12c0.028,0.333,0.061,0.664,0.088,0.996L424.786,199.707z"/>
	<path fill="#FFFFFF" d="M10.28,234.969l0.087,0.996l11.863-1.038c-0.03-0.332-0.06-0.663-0.088-0.996L10.28,234.969z"/>
	<path fill="#FFFFFF" d="M422.459,181.712l-0.174-0.984l-12.589,2.22c0.058,0.328,0.107,0.658,0.163,0.986L422.459,181.712z"/>
	<path fill="#FFFFFF" d="M12.606,252.965l0.174,0.984l11.727-2.067c-0.059-0.328-0.112-0.657-0.169-0.985L12.606,252.965z"/>
	<path fill="#FFFFFF" d="M16.49,270.689l0.259,0.967l11.535-3.091c-0.087-0.322-0.175-0.644-0.261-0.966L16.49,270.689z"/>
	<path fill="#FFFFFF" d="M418.577,163.986l-0.26-0.966l-12.306,3.297c0.086,0.322,0.177,0.643,0.262,0.965L418.577,163.986z"/>
	<path fill="#FFFFFF" d="M21.905,288.009l0.342,0.939l11.249-4.094c-0.116-0.313-0.232-0.625-0.346-0.938L21.905,288.009z"/>
	<path fill="#FFFFFF" d="M413.159,146.669l-0.342-0.939l-11.917,4.337c0.113,0.313,0.22,0.629,0.332,0.943L413.159,146.669z"/>
	<path fill="#FFFFFF" d="M28.808,304.79l0.423,0.906l10.899-5.082c-0.143-0.302-0.282-0.604-0.423-0.906L28.808,304.79z"/>
	<path fill="#FFFFFF" d="M406.254,129.887l-0.422-0.906l-11.472,5.349c0.141,0.302,0.283,0.603,0.423,0.906L406.254,129.887z"/>
	<path fill="#FFFFFF" d="M397.801,113.448l-0.5-0.866l-10.984,6.342c0.167,0.289,0.339,0.574,0.505,0.863L397.801,113.448z"/>
	<path fill="#FFFFFF" d="M37.035,320.583l0.5,0.865l10.409-6.01c-0.168-0.288-0.342-0.571-0.509-0.86L37.035,320.583z"/>
	<path fill="#FFFFFF" d="M46.747,335.911l0.573,0.818l9.87-6.911c-0.192-0.271-0.378-0.549-0.569-0.821L46.747,335.911z"/>
	<path fill="#FFFFFF" d="M388.087,98.122l-0.574-0.819l-10.388,7.273c0.192,0.272,0.38,0.548,0.57,0.822L388.087,98.122z"/>
	<path fill="#FFFFFF" d="M376.372,83.639l-0.643-0.766l-9.329,7.828c0.215,0.254,0.432,0.508,0.646,0.763L376.372,83.639z"/>
	<path fill="#FFFFFF" d="M57.055,350.273l0.643,0.766l9.644-8.092c-0.215-0.255-0.432-0.507-0.646-0.764L57.055,350.273z"/>
	<path fill="#FFFFFF" d="M355.9,79.238l8.947-8.947l-0.707-0.707l-8.942,8.943C355.433,78.762,355.665,79.002,355.9,79.238z"/>
	<path fill="#FFFFFF" d="M78.544,355.182l-8.561,8.561l0.707,0.707l8.565-8.564C79.019,355.649,78.78,355.418,78.544,355.182z"/>
	<path fill="#FFFFFF" d="M83.333,376.032l0.766,0.643l7.798-9.294c-0.256-0.213-0.508-0.431-0.763-0.646L83.333,376.032z"/>
	<path fill="#FFFFFF" d="M351.5,58.001l-0.766-0.643l-8.117,9.673c0.256,0.214,0.51,0.43,0.764,0.645L351.5,58.001z"/>
	<path fill="#FFFFFF" d="M97.703,387.113l0.819,0.574l6.97-9.954c-0.274-0.19-0.55-0.378-0.822-0.57L97.703,387.113z"/>
	<path fill="#FFFFFF" d="M337.13,46.918l-0.818-0.573l-7.222,10.313c0.273,0.191,0.55,0.377,0.821,0.569L337.13,46.918z"/>
	<path fill="#FFFFFF" d="M112.982,396.9l0.866,0.5l6.077-10.526c-0.29-0.165-0.576-0.335-0.865-0.502L112.982,396.9z"/>
	<path fill="#FFFFFF" d="M321.849,37.135l-0.865-0.5l-6.268,10.855c0.289,0.167,0.572,0.34,0.86,0.509L321.849,37.135z"/>
	<path fill="#FFFFFF" d="M305.773,28.717l-0.906-0.423l-5.283,11.331c0.302,0.141,0.604,0.281,0.906,0.423L305.773,28.717z"/>
	<path fill="#FFFFFF" d="M129.058,405.318l0.906,0.422l5.147-11.038c-0.302-0.14-0.604-0.282-0.906-0.423L129.058,405.318z"/>
	<path fill="#FFFFFF" d="M289.026,21.732l-0.939-0.342l-4.261,11.705c0.313,0.114,0.627,0.229,0.939,0.344L289.026,21.732z"/>
	<path fill="#FFFFFF" d="M145.805,412.302l0.939,0.342l4.173-11.467c-0.313-0.112-0.63-0.218-0.943-0.332L145.805,412.302z"/>
	<path fill="#FFFFFF" d="M163.099,417.801l0.966,0.259l3.167-11.821c-0.323-0.085-0.643-0.175-0.965-0.262L163.099,417.801z"/>
	<path fill="#FFFFFF" d="M271.734,16.232l-0.967-0.259l-3.22,12.015c0.323,0.086,0.645,0.174,0.967,0.262L271.734,16.232z"/>
	<path fill="#FFFFFF" d="M180.804,421.771l0.984,0.174l2.134-12.104c-0.328-0.057-0.659-0.105-0.986-0.164L180.804,421.771z"/>
	<path fill="#FFFFFF" d="M254.028,12.265l-0.984-0.174l-2.156,12.226c0.328,0.057,0.658,0.109,0.985,0.168L254.028,12.265z"/>
	<path fill="#FFFFFF" d="M236.042,9.853l-0.996-0.087l-1.081,12.362c0.332,0.028,0.664,0.058,0.995,0.088L236.042,9.853z"/>
	<path fill="#FFFFFF" d="M198.789,424.183l0.996,0.088l1.076-12.297c-0.333-0.027-0.664-0.06-0.996-0.089L198.789,424.183z"/>
</g>
</svg>
